<?xml version="1.0" encoding="utf-8"?>
<!-- Generator: Adobe Illustrator 19.1.1, SVG Export Plug-In . SVG Version: 6.00 Build 0)  -->
<svg version="1.1" id="Layer_1" xmlns="http://www.w3.org/2000/svg" xmlns:xlink="http://www.w3.org/1999/xlink" x="0px" y="0px"
	 viewBox="-309.3 229.5 20.1 23.8" style="enable-background:new -309.3 229.5 20.1 23.8;" xml:space="preserve">
<style type="text/css">
	.st0{fill:#C5C5C5;}
</style>
<path id="fa-apple.svg" class="st0" d="M-289.6,246.7c-0.9-0.3-1.7-0.9-2.2-1.8c-0.6-0.9-1-2-1-3.1c0-1,0.3-2,0.9-2.9
	c0.5-0.6,1-1.2,1.6-1.6c-0.4-0.5-0.9-1-1.5-1.4c-0.9-0.6-1.9-0.9-3-0.9c-0.8,0-1.6,0.2-2.4,0.5c-0.6,0.3-1.3,0.4-2,0.5
	c-0.7-0.1-1.3-0.2-1.9-0.4c-0.8-0.3-1.6-0.4-2.5-0.4c-1.6,0-3,0.7-4,2c-1.1,1.5-1.7,3.4-1.6,5.2c0.1,2.5,0.8,4.9,2,7
	c1.4,2.4,2.8,3.6,4.2,3.6c0.6,0,1.3-0.2,1.8-0.5c0.6-0.3,1.3-0.4,2-0.5c0.7,0,1.4,0.2,2.1,0.5c0.6,0.2,1.3,0.4,2,0.4
	c1.2,0,2.4-0.9,3.6-2.7C-290.6,249.2-290,248-289.6,246.7z M-294.8,230.4c0-0.1,0-0.2,0-0.3s0-0.2-0.1-0.3c-1.4,0.2-2.6,1-3.5,2.1
	c-0.7,1.1-1.1,2.3-1.1,3.6c0.5,0,1-0.1,1.5-0.2c0.6-0.2,1.1-0.6,1.5-1c0.6-0.5,1-1.2,1.3-1.9C-295,231.7-294.8,231-294.8,230.4
	L-294.8,230.4z"/>
</svg>
